<svg width="106" height="61" viewBox="0 0 106 61" fill="none" xmlns="http://www.w3.org/2000/svg">
<path d="M8.65778 9.89696C11.7778 9.89696 14.1138 10.609 15.6658 12.033C17.2178 13.441 17.9938 15.497 17.9938 18.201C17.9938 19.945 17.6098 21.473 16.8418 22.785C16.0898 24.081 14.9938 25.089 13.5538 25.809C12.1298 26.529 10.4258 26.889 8.44178 26.889L6.95378 26.865C6.02578 26.833 5.35378 26.817 4.93778 26.817C3.28978 26.817 2.05778 26.841 1.24178 26.889V26.409C1.76978 26.377 2.15378 26.313 2.39378 26.217C2.64978 26.121 2.81778 25.937 2.89778 25.665C2.99378 25.393 3.04178 24.953 3.04178 24.345V12.441C3.04178 11.833 2.99378 11.393 2.89778 11.121C2.81778 10.849 2.64978 10.665 2.39378 10.569C2.15378 10.473 1.76978 10.409 1.24178 10.377V9.89696C1.91378 9.94496 2.88178 9.96896 4.14578 9.96896H4.88978L5.84978 9.94496C7.16178 9.91296 8.09778 9.89696 8.65778 9.89696ZM8.63378 10.329C8.13778 10.329 7.76178 10.385 7.50578 10.497C7.26578 10.609 7.09778 10.809 7.00178 11.097C6.90578 11.385 6.85778 11.817 6.85778 12.393V24.393C6.85778 24.969 6.90578 25.401 7.00178 25.689C7.09778 25.977 7.26578 26.177 7.50578 26.289C7.76178 26.401 8.14578 26.457 8.65778 26.457C10.5938 26.457 11.9698 25.785 12.7858 24.441C13.6018 23.081 14.0098 21.033 14.0098 18.297C14.0098 15.561 13.5858 13.553 12.7378 12.273C11.9058 10.977 10.5378 10.329 8.63378 10.329ZM26.6906 25.257C28.0026 25.257 29.0586 24.617 29.8586 23.337L30.2906 23.481C29.9706 24.521 29.3946 25.409 28.5626 26.145C27.7466 26.865 26.7226 27.225 25.4906 27.225C23.7946 27.225 22.4426 26.689 21.4346 25.617C20.4426 24.529 19.9466 22.929 19.9466 20.817C19.9466 18.657 20.4826 17.009 21.5546 15.873C22.6266 14.721 24.0506 14.145 25.8266 14.145C28.8346 14.145 30.3386 15.921 30.3386 19.473H23.5946C23.5786 19.713 23.5706 20.089 23.5706 20.601C23.5706 21.657 23.7146 22.537 24.0026 23.241C24.3066 23.945 24.6906 24.457 25.1546 24.777C25.6346 25.097 26.1466 25.257 26.6906 25.257ZM25.6826 14.649C25.1066 14.649 24.6266 15.009 24.2426 15.729C23.8746 16.433 23.6426 17.529 23.5466 19.017H27.3146C27.3466 17.753 27.2186 16.713 26.9306 15.897C26.6586 15.065 26.2426 14.649 25.6826 14.649ZM28.2986 7.28096C28.5866 7.48896 28.7306 7.79296 28.7306 8.19296C28.7306 8.52896 28.6106 8.85696 28.3706 9.17696C28.1946 9.38496 27.9706 9.60096 27.6986 9.82496C27.4426 10.033 27.1626 10.249 26.8586 10.473C25.8986 11.145 25.0506 11.825 24.3146 12.513L24.0506 12.297C24.4826 11.513 24.9306 10.529 25.3946 9.34496C25.6026 8.84896 25.7626 8.48096 25.8746 8.24096C26.0026 7.98496 26.1546 7.75296 26.3306 7.54496C26.6346 7.16096 27.0106 6.96896 27.4586 6.96896C27.7946 6.96896 28.0746 7.07296 28.2986 7.28096ZM36.6243 24.657C36.6243 25.313 36.7363 25.769 36.9603 26.025C37.1843 26.265 37.5843 26.385 38.1603 26.385V26.889C36.4963 26.825 35.4243 26.793 34.9443 26.793C34.4003 26.793 33.2963 26.825 31.6323 26.889V26.385C32.1923 26.385 32.5843 26.265 32.8083 26.025C33.0483 25.769 33.1683 25.313 33.1683 24.657V10.977C33.1683 10.241 33.0483 9.70496 32.8083 9.36896C32.5843 9.03296 32.1923 8.86496 31.6323 8.86496V8.36096C32.1443 8.40896 32.6403 8.43296 33.1203 8.43296C34.5123 8.43296 35.6803 8.32096 36.6243 8.09696V24.657ZM42.3015 8.28896C42.9735 8.28896 43.5015 8.45696 43.8855 8.79296C44.2855 9.11296 44.4855 9.56096 44.4855 10.137C44.4855 10.713 44.2855 11.169 43.8855 11.505C43.5015 11.825 42.9735 11.985 42.3015 11.985C41.6295 11.985 41.0935 11.825 40.6935 11.505C40.3095 11.169 40.1175 10.713 40.1175 10.137C40.1175 9.56096 40.3095 9.11296 40.6935 8.79296C41.0935 8.45696 41.6295 8.28896 42.3015 8.28896ZM44.1735 24.657C44.1735 25.313 44.2855 25.769 44.5095 26.025C44.7495 26.265 45.1495 26.385 45.7095 26.385V26.889C44.1095 26.825 43.0455 26.793 42.5175 26.793C42.0215 26.793 40.9095 26.825 39.1815 26.889V26.385C39.7575 26.385 40.1575 26.265 40.3815 26.025C40.6055 25.769 40.7175 25.313 40.7175 24.657V17.097C40.7175 16.361 40.6055 15.825 40.3815 15.489C40.1575 15.153 39.7575 14.985 39.1815 14.985V14.481C39.6935 14.529 40.1895 14.553 40.6695 14.553C42.0935 14.553 43.2615 14.441 44.1735 14.217V24.657ZM52.9918 14.145C53.5838 14.145 54.1438 14.209 54.6718 14.337C55.1998 14.465 55.6398 14.641 55.9918 14.865C56.4078 15.121 56.7278 15.449 56.9518 15.849C57.1918 16.233 57.3118 16.657 57.3118 17.121C57.3118 17.681 57.1358 18.145 56.7838 18.513C56.4318 18.865 55.9758 19.041 55.4158 19.041C54.8558 19.041 54.4078 18.881 54.0718 18.561C53.7358 18.241 53.5678 17.809 53.5678 17.265C53.5678 16.785 53.7198 16.369 54.0238 16.017C54.3278 15.665 54.7038 15.425 55.1518 15.297C55.0238 15.121 54.8238 14.985 54.5518 14.889C54.2958 14.777 54.0158 14.721 53.7118 14.721C52.7518 14.721 51.9998 15.249 51.4558 16.305C50.9278 17.345 50.6638 18.713 50.6638 20.409C50.6638 22.121 50.9678 23.353 51.5758 24.105C52.1838 24.857 52.9438 25.233 53.8558 25.233C54.3998 25.233 54.9438 25.089 55.4878 24.801C56.0478 24.513 56.5518 24.009 56.9998 23.289L57.4078 23.433C57.0878 24.473 56.5278 25.369 55.7278 26.121C54.9278 26.857 53.8958 27.225 52.6318 27.225C50.9838 27.225 49.6398 26.681 48.5998 25.593C47.5598 24.505 47.0398 22.889 47.0398 20.745C47.0398 19.337 47.2958 18.137 47.8078 17.145C48.3198 16.153 49.0238 15.409 49.9198 14.913C50.8158 14.401 51.8398 14.145 52.9918 14.145ZM61.778 8.28896C62.45 8.28896 62.978 8.45696 63.362 8.79296C63.762 9.11296 63.962 9.56096 63.962 10.137C63.962 10.713 63.762 11.169 63.362 11.505C62.978 11.825 62.45 11.985 61.778 11.985C61.106 11.985 60.57 11.825 60.17 11.505C59.786 11.169 59.594 10.713 59.594 10.137C59.594 9.56096 59.786 9.11296 60.17 8.79296C60.57 8.45696 61.106 8.28896 61.778 8.28896ZM63.65 24.657C63.65 25.313 63.762 25.769 63.986 26.025C64.226 26.265 64.626 26.385 65.186 26.385V26.889C63.586 26.825 62.522 26.793 61.994 26.793C61.498 26.793 60.386 26.825 58.658 26.889V26.385C59.234 26.385 59.634 26.265 59.858 26.025C60.082 25.769 60.194 25.313 60.194 24.657V17.097C60.194 16.361 60.082 15.825 59.858 15.489C59.634 15.153 59.234 14.985 58.658 14.985V14.481C59.17 14.529 59.666 14.553 60.146 14.553C61.57 14.553 62.738 14.441 63.65 14.217V24.657ZM72.4203 14.145C74.2603 14.145 75.7003 14.673 76.7403 15.729C77.7803 16.769 78.3003 18.425 78.3003 20.697C78.3003 22.969 77.7803 24.625 76.7403 25.665C75.7003 26.705 74.2603 27.225 72.4203 27.225C70.5963 27.225 69.1563 26.705 68.1003 25.665C67.0603 24.625 66.5403 22.969 66.5403 20.697C66.5403 18.425 67.0603 16.769 68.1003 15.729C69.1563 14.673 70.5963 14.145 72.4203 14.145ZM72.4203 14.625C71.7323 14.625 71.1803 15.129 70.7643 16.137C70.3643 17.129 70.1643 18.649 70.1643 20.697C70.1643 22.745 70.3643 24.265 70.7643 25.257C71.1803 26.249 71.7323 26.745 72.4203 26.745C73.1243 26.745 73.6763 26.257 74.0763 25.281C74.4763 24.289 74.6763 22.761 74.6763 20.697C74.6763 18.633 74.4683 17.105 74.0523 16.113C73.6523 15.121 73.1083 14.625 72.4203 14.625ZM91.7507 24.273C91.7507 25.009 91.8627 25.545 92.0867 25.881C92.3267 26.217 92.7267 26.385 93.2867 26.385V26.889C92.7907 26.841 92.2947 26.817 91.7987 26.817C90.4067 26.817 89.2387 26.929 88.2947 27.153V24.993C87.5587 26.481 86.2707 27.225 84.4307 27.225C83.2307 27.225 82.3587 26.913 81.8147 26.289C81.5587 25.985 81.3667 25.593 81.2387 25.113C81.1267 24.617 81.0707 23.969 81.0707 23.169V17.097C81.0707 16.361 80.9507 15.825 80.7107 15.489C80.4867 15.153 80.0947 14.985 79.5347 14.985V14.481C80.0307 14.529 80.5267 14.553 81.0227 14.553C82.4147 14.553 83.5827 14.441 84.5267 14.217V24.153C84.5267 24.825 84.6227 25.329 84.8147 25.665C85.0227 26.001 85.4067 26.169 85.9667 26.169C86.6067 26.169 87.1507 25.905 87.5987 25.377C88.0627 24.833 88.2947 24.169 88.2947 23.385V17.097C88.2947 16.361 88.1747 15.825 87.9347 15.489C87.7107 15.153 87.3187 14.985 86.7587 14.985V14.481C87.2707 14.529 87.7667 14.553 88.2467 14.553C89.6387 14.553 90.8067 14.441 91.7507 14.217V24.273ZM99.1053 14.145C99.7133 14.145 100.273 14.225 100.785 14.385C101.297 14.529 101.689 14.697 101.961 14.889C102.121 15.001 102.265 15.057 102.393 15.057C102.537 15.057 102.657 14.985 102.753 14.841C102.865 14.681 102.937 14.457 102.969 14.169H103.473C103.409 14.985 103.377 16.393 103.377 18.393H102.873C102.729 17.337 102.409 16.457 101.913 15.753C101.433 15.033 100.729 14.673 99.8013 14.673C99.3213 14.673 98.9213 14.809 98.6013 15.081C98.2973 15.353 98.1453 15.729 98.1453 16.209C98.1453 16.753 98.3293 17.225 98.6973 17.625C99.0653 18.009 99.6413 18.481 100.425 19.041L101.121 19.545C102.097 20.281 102.817 20.937 103.281 21.513C103.745 22.089 103.977 22.809 103.977 23.673C103.977 24.377 103.769 25.001 103.353 25.545C102.953 26.089 102.409 26.505 101.721 26.793C101.033 27.081 100.273 27.225 99.4413 27.225C98.5613 27.225 97.8093 27.057 97.1853 26.721C96.6733 26.465 96.3053 26.297 96.0813 26.217C95.9213 26.169 95.7773 26.225 95.6493 26.385C95.5373 26.529 95.4493 26.753 95.3853 27.057H94.8813C94.9453 26.145 94.9773 24.545 94.9773 22.257H95.4813C95.8013 25.201 96.8813 26.673 98.7213 26.673C99.1853 26.673 99.5773 26.537 99.8973 26.265C100.233 25.977 100.401 25.545 100.401 24.969C100.401 24.521 100.297 24.121 100.089 23.769C99.8973 23.417 99.6493 23.105 99.3453 22.833C99.0413 22.561 98.5853 22.185 97.9773 21.705C97.2573 21.129 96.7053 20.665 96.3213 20.313C95.9533 19.961 95.6333 19.545 95.3613 19.065C95.1053 18.585 94.9773 18.049 94.9773 17.457C94.9773 16.433 95.3773 15.625 96.1773 15.033C96.9773 14.441 97.9533 14.145 99.1053 14.145Z" fill="#005581"/>
<path d="M16.7001 46.367C17.1801 46.367 17.5701 46.505 17.8701 46.781C18.1821 47.057 18.3381 47.393 18.3381 47.789C18.3381 48.101 18.2421 48.371 18.0501 48.599C17.8701 48.815 17.6241 48.923 17.3121 48.923C17.0481 48.923 16.8201 48.839 16.6281 48.671C16.4481 48.503 16.3581 48.275 16.3581 47.987C16.3581 47.591 16.5621 47.267 16.9701 47.015C16.8861 46.895 16.7601 46.835 16.5921 46.835C16.1241 46.835 15.6981 47.021 15.3141 47.393C14.9301 47.753 14.6301 48.197 14.4141 48.725C14.1981 49.253 14.0901 49.751 14.0901 50.219V54.035C14.0901 54.587 14.2461 54.971 14.5581 55.187C14.8821 55.403 15.3621 55.511 15.9981 55.511V55.889L15.5661 55.871C14.3421 55.835 13.5621 55.817 13.2261 55.817C12.9141 55.817 12.2061 55.841 11.1021 55.889V55.511C11.6061 55.511 11.9601 55.421 12.1641 55.241C12.3681 55.049 12.4701 54.707 12.4701 54.215V48.581C12.4701 48.029 12.3681 47.627 12.1641 47.375C11.9601 47.123 11.6061 46.997 11.1021 46.997V46.619C11.4861 46.655 11.8581 46.673 12.2181 46.673C12.9741 46.673 13.5981 46.589 14.0901 46.421V48.671C14.3061 48.071 14.6481 47.537 15.1161 47.069C15.5961 46.601 16.1241 46.367 16.7001 46.367ZM26.5781 53.729C26.3621 54.389 25.9541 54.959 25.3541 55.439C24.7661 55.907 24.0521 56.141 23.2121 56.141C22.3601 56.141 21.6221 55.949 20.9981 55.565C20.3741 55.169 19.8941 54.623 19.5581 53.927C19.2341 53.219 19.0721 52.403 19.0721 51.479C19.0721 50.435 19.2401 49.529 19.5761 48.761C19.9121 47.993 20.3861 47.405 20.9981 46.997C21.6101 46.577 22.3241 46.367 23.1401 46.367C24.2201 46.367 25.0481 46.697 25.6241 47.357C26.2121 48.005 26.5061 48.995 26.5061 50.327H20.8721C20.8361 50.663 20.8181 51.047 20.8181 51.479C20.8181 52.271 20.9441 52.961 21.1961 53.549C21.4601 54.137 21.8021 54.593 22.2221 54.917C22.6541 55.229 23.1041 55.385 23.5721 55.385C24.1481 55.385 24.6581 55.247 25.1021 54.971C25.5461 54.695 25.9181 54.233 26.2181 53.585L26.5781 53.729ZM23.0681 46.709C22.5041 46.709 22.0181 46.985 21.6101 47.537C21.2021 48.089 20.9501 48.905 20.8541 49.985H24.7781C24.8021 49.049 24.6641 48.269 24.3641 47.645C24.0761 47.021 23.6441 46.709 23.0681 46.709ZM31.0936 46.367C31.5256 46.367 31.9096 46.433 32.2456 46.565C32.5816 46.697 32.8516 46.853 33.0556 47.033C33.1876 47.129 33.2956 47.177 33.3796 47.177C33.5956 47.177 33.7276 46.913 33.7756 46.385H34.1896C34.1416 46.973 34.1176 47.993 34.1176 49.445H33.7036C33.5716 48.653 33.3136 47.999 32.9296 47.483C32.5576 46.967 31.9996 46.709 31.2556 46.709C30.8236 46.709 30.4696 46.835 30.1936 47.087C29.9176 47.327 29.7796 47.663 29.7796 48.095C29.7796 48.515 29.9236 48.869 30.2116 49.157C30.4996 49.433 30.9616 49.769 31.5976 50.165C31.7056 50.225 31.8676 50.327 32.0836 50.471C32.6356 50.831 33.0796 51.149 33.4156 51.425C33.7516 51.701 34.0216 52.019 34.2256 52.379C34.4416 52.739 34.5496 53.153 34.5496 53.621C34.5496 54.413 34.2496 55.031 33.6496 55.475C33.0616 55.919 32.3356 56.141 31.4716 56.141C30.9316 56.141 30.4576 56.057 30.0496 55.889C29.7856 55.757 29.5396 55.595 29.3116 55.403C29.2636 55.355 29.2096 55.331 29.1496 55.331C29.0656 55.331 28.9876 55.391 28.9156 55.511C28.8556 55.631 28.8076 55.799 28.7716 56.015H28.3576C28.4056 55.331 28.4296 54.131 28.4296 52.415H28.8436C28.9756 53.543 29.2156 54.389 29.5636 54.953C29.9116 55.505 30.5056 55.781 31.3456 55.781C31.7656 55.781 32.1376 55.643 32.4616 55.367C32.7856 55.091 32.9476 54.659 32.9476 54.071C32.9476 53.603 32.7856 53.207 32.4616 52.883C32.1496 52.559 31.6336 52.169 30.9136 51.713C30.3256 51.341 29.8696 51.035 29.5456 50.795C29.2336 50.555 28.9696 50.261 28.7536 49.913C28.5376 49.565 28.4296 49.157 28.4296 48.689C28.4296 47.933 28.6816 47.357 29.1856 46.961C29.6896 46.565 30.3256 46.367 31.0936 46.367ZM38.8204 46.637H41.4844V46.997H38.8204V53.963C38.8204 54.503 38.9164 54.893 39.1084 55.133C39.3124 55.373 39.6004 55.493 39.9724 55.493C40.3444 55.493 40.6624 55.343 40.9264 55.043C41.1904 54.743 41.4124 54.251 41.5924 53.567L41.9524 53.657C41.6524 55.313 40.8724 56.141 39.6124 56.141C39.2044 56.141 38.8684 56.093 38.6044 55.997C38.3404 55.901 38.1064 55.751 37.9024 55.547C37.6384 55.283 37.4524 54.959 37.3444 54.575C37.2484 54.191 37.2004 53.675 37.2004 53.027V46.997H35.4724V46.637H37.2004V43.883C37.8724 43.859 38.4124 43.775 38.8204 43.631V46.637ZM44.6977 56.015C43.9417 56.015 43.3777 55.829 43.0057 55.457C42.6457 55.073 42.4657 54.545 42.4657 53.873C42.4657 53.333 42.6097 52.889 42.8977 52.541C43.1977 52.193 43.5457 51.917 43.9417 51.713C44.3497 51.509 44.8837 51.293 45.5437 51.065C46.2157 50.837 46.7137 50.627 47.0377 50.435C47.3617 50.243 47.5237 49.985 47.5237 49.661V48.545C47.5237 47.849 47.3737 47.375 47.0737 47.123C46.7857 46.859 46.3777 46.727 45.8497 46.727C45.0097 46.727 44.4157 46.943 44.0677 47.375C44.3077 47.435 44.5057 47.561 44.6617 47.753C44.8297 47.945 44.9137 48.185 44.9137 48.473C44.9137 48.773 44.8177 49.013 44.6257 49.193C44.4337 49.361 44.1877 49.445 43.8877 49.445C43.5517 49.445 43.2997 49.343 43.1317 49.139C42.9637 48.923 42.8797 48.665 42.8797 48.365C42.8797 48.077 42.9457 47.837 43.0777 47.645C43.2217 47.453 43.4317 47.261 43.7077 47.069C43.9957 46.865 44.3617 46.697 44.8057 46.565C45.2497 46.433 45.7357 46.367 46.2637 46.367C47.1997 46.367 47.9077 46.589 48.3877 47.033C48.6877 47.309 48.8857 47.645 48.9817 48.041C49.0897 48.425 49.1437 48.935 49.1437 49.571V54.575C49.1437 54.875 49.1857 55.091 49.2697 55.223C49.3537 55.355 49.4977 55.421 49.7017 55.421C49.8457 55.421 49.9777 55.391 50.0977 55.331C50.2297 55.259 50.3677 55.163 50.5117 55.043L50.7097 55.349C50.3977 55.589 50.1277 55.763 49.8997 55.871C49.6837 55.967 49.4077 56.015 49.0717 56.015C48.4957 56.015 48.0937 55.871 47.8657 55.583C47.6377 55.295 47.5237 54.905 47.5237 54.413C47.1637 55.013 46.7497 55.433 46.2817 55.673C45.8137 55.901 45.2857 56.015 44.6977 56.015ZM45.4897 55.295C46.2817 55.295 46.9597 54.839 47.5237 53.927V50.399C47.4157 50.567 47.2657 50.705 47.0737 50.813C46.8817 50.921 46.5877 51.065 46.1917 51.245C45.7357 51.437 45.3637 51.623 45.0757 51.803C44.7997 51.971 44.5597 52.205 44.3557 52.505C44.1517 52.805 44.0497 53.189 44.0497 53.657C44.0497 54.197 44.1817 54.605 44.4457 54.881C44.7097 55.157 45.0577 55.295 45.4897 55.295ZM59.4225 53.945C59.4225 54.497 59.5245 54.899 59.7285 55.151C59.9325 55.403 60.2865 55.529 60.7905 55.529V55.907C60.4185 55.871 60.0465 55.853 59.6745 55.853C58.9185 55.853 58.2945 55.937 57.8025 56.105V53.981C57.5145 54.725 57.1065 55.271 56.5785 55.619C56.0505 55.967 55.4745 56.141 54.8505 56.141C54.0345 56.141 53.4105 55.913 52.9785 55.457C52.7625 55.217 52.6065 54.911 52.5105 54.539C52.4265 54.167 52.3845 53.687 52.3845 53.099V48.581C52.3845 48.029 52.2825 47.627 52.0785 47.375C51.8745 47.123 51.5205 46.997 51.0165 46.997V46.619C51.3885 46.655 51.7605 46.673 52.1325 46.673C52.8885 46.673 53.5125 46.589 54.0045 46.421V53.495C54.0045 53.951 54.0285 54.323 54.0765 54.611C54.1365 54.887 54.2625 55.115 54.4545 55.295C54.6585 55.475 54.9645 55.565 55.3725 55.565C55.8285 55.565 56.2425 55.421 56.6145 55.133C56.9865 54.845 57.2745 54.455 57.4785 53.963C57.6945 53.459 57.8025 52.907 57.8025 52.307V48.581C57.8025 48.029 57.7005 47.627 57.4965 47.375C57.2925 47.123 56.9385 46.997 56.4345 46.997V46.619C56.8065 46.655 57.1785 46.673 57.5505 46.673C58.3065 46.673 58.9305 46.589 59.4225 46.421V53.945ZM67.3075 46.367C67.7875 46.367 68.1775 46.505 68.4775 46.781C68.7895 47.057 68.9455 47.393 68.9455 47.789C68.9455 48.101 68.8495 48.371 68.6575 48.599C68.4775 48.815 68.2315 48.923 67.9195 48.923C67.6555 48.923 67.4275 48.839 67.2355 48.671C67.0555 48.503 66.9655 48.275 66.9655 47.987C66.9655 47.591 67.1695 47.267 67.5775 47.015C67.4935 46.895 67.3675 46.835 67.1995 46.835C66.7315 46.835 66.3055 47.021 65.9215 47.393C65.5375 47.753 65.2375 48.197 65.0215 48.725C64.8055 49.253 64.6975 49.751 64.6975 50.219V54.035C64.6975 54.587 64.8535 54.971 65.1655 55.187C65.4895 55.403 65.9695 55.511 66.6055 55.511V55.889L66.1735 55.871C64.9495 55.835 64.1695 55.817 63.8335 55.817C63.5215 55.817 62.8135 55.841 61.7095 55.889V55.511C62.2135 55.511 62.5675 55.421 62.7715 55.241C62.9755 55.049 63.0775 54.707 63.0775 54.215V48.581C63.0775 48.029 62.9755 47.627 62.7715 47.375C62.5675 47.123 62.2135 46.997 61.7095 46.997V46.619C62.0935 46.655 62.4655 46.673 62.8255 46.673C63.5815 46.673 64.2055 46.589 64.6975 46.421V48.671C64.9135 48.071 65.2555 47.537 65.7235 47.069C66.2035 46.601 66.7315 46.367 67.3075 46.367ZM72.1371 56.015C71.3811 56.015 70.8171 55.829 70.4451 55.457C70.0851 55.073 69.9051 54.545 69.9051 53.873C69.9051 53.333 70.0491 52.889 70.3371 52.541C70.6371 52.193 70.9851 51.917 71.3811 51.713C71.7891 51.509 72.3231 51.293 72.9831 51.065C73.6551 50.837 74.1531 50.627 74.4771 50.435C74.8011 50.243 74.9631 49.985 74.9631 49.661V48.545C74.9631 47.849 74.8131 47.375 74.5131 47.123C74.2251 46.859 73.8171 46.727 73.2891 46.727C72.4491 46.727 71.8551 46.943 71.5071 47.375C71.7471 47.435 71.9451 47.561 72.1011 47.753C72.2691 47.945 72.3531 48.185 72.3531 48.473C72.3531 48.773 72.2571 49.013 72.0651 49.193C71.8731 49.361 71.6271 49.445 71.3271 49.445C70.9911 49.445 70.7391 49.343 70.5711 49.139C70.4031 48.923 70.3191 48.665 70.3191 48.365C70.3191 48.077 70.3851 47.837 70.5171 47.645C70.6611 47.453 70.8711 47.261 71.1471 47.069C71.4351 46.865 71.8011 46.697 72.2451 46.565C72.6891 46.433 73.1751 46.367 73.7031 46.367C74.6391 46.367 75.3471 46.589 75.8271 47.033C76.1271 47.309 76.3251 47.645 76.4211 48.041C76.5291 48.425 76.5831 48.935 76.5831 49.571V54.575C76.5831 54.875 76.6251 55.091 76.7091 55.223C76.7931 55.355 76.9371 55.421 77.1411 55.421C77.2851 55.421 77.4171 55.391 77.5371 55.331C77.6691 55.259 77.8071 55.163 77.9511 55.043L78.1491 55.349C77.8371 55.589 77.5671 55.763 77.3391 55.871C77.1231 55.967 76.8471 56.015 76.5111 56.015C75.9351 56.015 75.5331 55.871 75.3051 55.583C75.0771 55.295 74.9631 54.905 74.9631 54.413C74.6031 55.013 74.1891 55.433 73.7211 55.673C73.2531 55.901 72.7251 56.015 72.1371 56.015ZM72.9291 55.295C73.7211 55.295 74.3991 54.839 74.9631 53.927V50.399C74.8551 50.567 74.7051 50.705 74.5131 50.813C74.3211 50.921 74.0271 51.065 73.6311 51.245C73.1751 51.437 72.8031 51.623 72.5151 51.803C72.2391 51.971 71.9991 52.205 71.7951 52.505C71.5911 52.805 71.4891 53.189 71.4891 53.657C71.4891 54.197 71.6211 54.605 71.8851 54.881C72.1491 55.157 72.4971 55.295 72.9291 55.295ZM84.738 46.367C85.578 46.367 86.214 46.595 86.646 47.051C86.874 47.291 87.036 47.591 87.132 47.951C87.228 48.311 87.276 48.797 87.276 49.409V54.215C87.276 54.707 87.378 55.049 87.582 55.241C87.786 55.421 88.14 55.511 88.644 55.511V55.889C87.54 55.841 86.82 55.817 86.484 55.817C86.148 55.817 85.476 55.841 84.468 55.889V55.511C84.912 55.511 85.218 55.421 85.386 55.241C85.566 55.049 85.656 54.707 85.656 54.215V49.013C85.656 48.341 85.56 47.831 85.368 47.483C85.176 47.123 84.786 46.943 84.198 46.943C83.706 46.943 83.268 47.087 82.884 47.375C82.5 47.663 82.2 48.059 81.984 48.563C81.78 49.055 81.678 49.607 81.678 50.219V54.215C81.678 54.707 81.762 55.049 81.93 55.241C82.11 55.421 82.422 55.511 82.866 55.511V55.889C81.858 55.841 81.186 55.817 80.85 55.817C80.514 55.817 79.794 55.841 78.69 55.889V55.511C79.194 55.511 79.548 55.421 79.752 55.241C79.956 55.049 80.058 54.707 80.058 54.215V48.581C80.058 48.029 79.956 47.627 79.752 47.375C79.548 47.123 79.194 46.997 78.69 46.997V46.619C79.074 46.655 79.446 46.673 79.806 46.673C80.562 46.673 81.186 46.589 81.678 46.421V48.545C81.978 47.777 82.392 47.225 82.92 46.889C83.46 46.541 84.066 46.367 84.738 46.367ZM92.3282 46.637H94.9922V46.997H92.3282V53.963C92.3282 54.503 92.4242 54.893 92.6162 55.133C92.8202 55.373 93.1082 55.493 93.4802 55.493C93.8522 55.493 94.1702 55.343 94.4342 55.043C94.6982 54.743 94.9202 54.251 95.1002 53.567L95.4602 53.657C95.1602 55.313 94.3802 56.141 93.1202 56.141C92.7122 56.141 92.3762 56.093 92.1122 55.997C91.8482 55.901 91.6142 55.751 91.4102 55.547C91.1462 55.283 90.9602 54.959 90.8522 54.575C90.7562 54.191 90.7082 53.675 90.7082 53.027V46.997H88.9802V46.637H90.7082V43.883C91.3802 43.859 91.9202 43.775 92.3282 43.631V46.637Z" fill="#005581"/>
<path d="M22.4258 36.889L83.4258 36.889" stroke="#005581"/>
</svg>
